<svg xmlns="http://www.w3.org/2000/svg" width="512" height="512"><rect id="backgroundrect" width="100%" height="100%" x="0" y="0" fill="none" stroke="none"/><!--! Font Awesome Pro 6.1.1 by @fontawesome - https://fontawesome.com License - https://fontawesome.com/license (Commercial License) Copyright 2022 Fonticons, Inc. --><g class="currentLayer" style=""><title>Layer 1</title><path d="M256.6410256624222,417.1 c-16.38,0 -32.88,-4.1 -46.88,-15.12 L0.6410256624221802,250.9 v213.1 C0.6410256624221802,490.5 22.14102566242218,512 48.64102566242218,512 h416 c26.5,0 48,-21.5 48,-47.1 V250.9 l-209.1,151.1 C289.54102566242216,412 273.04102566242216,417.1 256.6410256624222,417.1 zM494.2410256624222,163 C485.4410256624222,156 477.04102566242216,149.5 464.6410256624222,140.1 v-44.12 c0,-26.5 -21.5,-48 -48,-48 l-77.5,0.0016000000000000003 c-3.125,-2.25 -5.875,-4.25 -9.125,-6.5 C313.2410256624222,29.13 279.9410256624222,-0.37320000000000003 256.6410256624222,0.0018000000000000004 C233.4410256624222,-0.37320000000000003 200.0410256624222,29.13 183.24102566242217,41.5 c-3.25,2.25 -6,4.25 -9.125,6.5 L96.64102566242218,48 c-26.5,0 -48,21.5 -48,48 v44.12 C36.27102566242218,149.5 27.89102566242218,156 19.02102566242218,163 C7.39102566242218,172 0.6410256624221802,186 0.6410256624221802,200.8 v10.620000000000001 l96,69.37 V96 h320 v184.7 l96,-69.37 V200.8 C512.6410256624222,186 505.9410256624222,172 494.2410256624222,163 zM176.64102566242218,255.1 h160 c8.836,0 16,-7.164 16,-15.1 c0,-8.838000000000001 -7.164,-16 -16,-16 h-160 c-8.836,0 -16,7.162 -16,16 C160.64102566242218,248.8 167.84102566242217,255.1 176.64102566242218,255.1 zM176.64102566242218,191.1 h160 c8.836,0 16,-7.164 16,-16 c0,-8.838000000000001 -7.164,-15.1 -16,-15.1 h-160 c-8.836,0 -16,7.162 -16,15.1 C160.64102566242218,184.8 167.84102566242217,191.1 176.64102566242218,191.1 z" id="svg_1" class="selected" fill="#36d7b7" fill-opacity="1"/></g></svg>