<svg id="Calque_1" data-name="twitter" xmlns="http://www.w3.org/2000/svg" viewBox="0 0 113.39 113.39"><title>email</title><path d="M109,33.12c2,4.73,1.84,9.5,1.54,14.27-.27,4.17-.75,8.33-1,12.5-.41,5.92-.9,11.85-.33,17.8a8.1,8.1,0,0,0,.23,1.72c.94,3,.22,5.83-1.1,8.46a8.94,8.94,0,0,1-2.69,3c-2.2,1.66-4.4,3.38-7.36,3.48-4.13.14-8.25.44-12.37.53-1.9,0-3.81-.34-5.72-.42-3.65-.14-7.29-.25-10.94-.3Q56.11,93.94,43,93.81c-1.63,0-3.25.22-4.88.28-1.44.06-2.88,0-4.32,0-.47,0-1.08-.31-1.39-.11-2,1.35-4.29.59-6.44.81a4,4,0,0,1-2-.24,12.38,12.38,0,0,0-5.92-.85,36.51,36.51,0,0,1-10-.88,3.48,3.48,0,0,0-2.47.22A2.52,2.52,0,0,1,2,91.4a6.31,6.31,0,0,1-.33-1.72c-.13-3.49-.24-7-.31-10.46,0-1.46.09-2.92.13-4.38.09-3.2.15-6.41.28-9.61.15-3.6.39-7.19.53-10.78.22-6.12.39-12.25.57-18.37,0-1,0-1.94,0-2.91,0-1.45,0-2.89,0-4.44,1.38-.41,2.48-.68,3.35.78.23.39,1,.39,1.47.71s1.13.91,1.06,1.21c-.31,1.2.55,1.57,1.19,2.08,4.25,3.32,8.55,6.58,12.77,9.94,1.27,1,2.27,2.35,3.51,3.39,2,1.67,4.08,3.23,6.16,4.79,1.7,1.28,3.45,2.46,5.16,3.73,3.85,2.87,7.5,6,11.81,8.25a33.22,33.22,0,0,1,3.72,2.74c1.09.77,2.24,1.47,3.35,2.2,1.28-.59,2.23-1,2.33-2.68,0-.76,1.12-1.53,1.84-2.14,1.32-1.12,2.72-2.14,4.11-3.17.18-.14.48-.12,1.28-.29l-3,3.11.26.43a4.13,4.13,0,0,0,1.41-.49C68.23,60.18,72.49,58,76,54.9c3.18-2.8,7.17-4.47,10-7.75.82-1,2.3-1.33,3.47-2,.42-.24.83-.5,1.22-.77,3.61-2.56,7.26-5.06,10.79-7.72a22,22,0,0,1,5.88-3ZM21.58,92.74c-2.33-.32-4.66-.71-7-.92A3.54,3.54,0,0,0,11.17,93,43.69,43.69,0,0,0,21.58,92.74ZM62.1,66.58c-1.57.12-2.19.67-2.56,1.82C61,68.69,61.38,67.86,62.1,66.58ZM76.32,56.41l-.47-.55-1.2,1.26.27.32Z"/><path d="M76.62,40.65c-2.91,1.16-5.21,3.28-7.71,5.06-3.28,2.33-6.39,4.92-9.51,7.48a12.94,12.94,0,0,0-1.78,2.27c-.47.59-.95,1.15-1.41,1.7-1.22-.49-1.42-1-.86-2.07.76-1.41.41-2-1.13-1.8a3.2,3.2,0,0,1-2.59-.9c-2.41-1.92-4.75-3.94-7.29-5.68-2.37-1.63-5-2.86-7.43-4.42A60,60,0,0,1,29.43,37a41.89,41.89,0,0,0-6.17-4.15c-.32-.2-.69-.33-1-.56-2-1.42-3.06-3.6-4.57-5.61l1.58.08a16.29,16.29,0,0,0,4,.22c4-.74,8-.32,12.06-.51,1.15-.05,2.3,0,3.45,0,5-.2,10.11-.52,15.17-.63,2.94-.06,5.89.23,8.83.3,1.53,0,3.06-.06,4.58-.06,4.3,0,8.59.8,12.9.08a9.39,9.39,0,0,1,3.66.06c2.5.62,4.93,0,7.39,0,2-.06,2-.08,2,2.21a6.81,6.81,0,0,0,.22,1.29l-7,4.9c.07-.4,0-.91-.48-.61a48.94,48.94,0,0,0-4.57,3c-1.68,1.25-3.24,2.66-4.86,4ZM23.11,28.32l-.29.49a2.9,2.9,0,0,0,2.76.71Z"/><path d="M76.6,40.87l2-.43-2.27,1.41L76,41.54l.58-.89Z"/></svg>