<svg xmlns="http://www.w3.org/2000/svg" width="384" height="512"><rect id="backgroundrect" width="100%" height="100%" x="0" y="0" fill="none" stroke="none"/><!--! Font Awesome Pro 6.1.1 by @fontawesome - https://fontawesome.com License - https://fontawesome.com/license (Commercial License) Copyright 2022 Fonticons, Inc. --><g class="currentLayer" style=""><title>Layer 1</title><path d="M374.46154022216797,-0.6410256624221802 h-288 C59.951540222167964,-0.6410256624221802 38.46154022216797,20.84897433757782 38.46154022216797,47.35897433757782 v416 C38.46154022216797,489.8589743375778 59.951540222167964,511.3589743375778 86.46154022216797,511.3589743375778 h288 c26.51,0 48,-21.49 48,-48 v-416 C422.46154022216797,20.84897433757782 400.96154022216797,-0.6410256624221802 374.46154022216797,-0.6410256624221802 zM230.46154022216797,159.35897433757782 c35.35,0 64,28.65 64,64 s-28.65,64 -64,64 S166.46154022216797,258.65897433757783 166.46154022216797,223.35897433757782 S195.16154022216796,159.35897433757782 230.46154022216797,159.35897433757782 zM326.46154022216797,415.3589743375778 H134.46154022216797 c-8.836,0 -16,-7.164 -16,-16 C118.46154022216797,355.15897433757783 154.26154022216798,319.3589743375778 198.46154022216797,319.3589743375778 h64 c44.18,0 80,35.82 80,80 C342.46154022216797,408.15897433757783 335.261540222168,415.3589743375778 326.46154022216797,415.3589743375778 zM278.46154022216797,95.35897433757782 h-96 C173.66154022216796,95.35897433757782 166.46154022216797,88.19897433757782 166.46154022216797,79.35897433757782 S173.66154022216796,63.35897433757782 182.46154022216797,63.35897433757782 h96 C287.261540222168,63.35897433757782 294.46154022216797,70.51897433757782 294.46154022216797,79.35897433757782 S287.261540222168,95.35897433757782 278.46154022216797,95.35897433757782 z" id="svg_1" class="selected" fill-opacity="1" fill="#36d7b7"/></g></svg>