<svg id="Calque_1" data-name="Calque 1" xmlns="http://www.w3.org/2000/svg" viewBox="0 0 113.39 113.39"><title>github</title><path d="M108.17,57.47,106.85,62a3.5,3.5,0,0,1-.22.86c-.81,1.33-.89,2.85-1.35,4.26-.79,2.4-1.8,4.73-2.77,7.07-.49,1.17-1.13,2.28-1.64,3.44-1.3,2.9-3.54,5.24-5.27,7.88a31.24,31.24,0,0,1-4.15,4.68c-1.39,1.4-2.63,2.92-4,4.31-1.22,1.21-2.57,2.31-3.87,3.46-.41.37-.82.75-1.26,1.09s-.51.77-.17,1.1c-1.93,1-3.74,2-5.59,2.91-1.12.54-2.31,1-3.46,1.44-.61.26-1.17-.58-1.8-.06-.83-.46-1.38,0-2,.78a4.85,4.85,0,0,1-.31-1.39c.31-2.42-.4-4.77-.48-7.16-.08-2.15-.22-4.3-.26-6.46,0-2.57,0-5.15,0-7.73,0-.81-.2-1.62-.32-2.59l1.11.59v-.85c2.26-1.11,4.4-2.14,6.53-3.22a4.91,4.91,0,0,0,1.2-.87,82.72,82.72,0,0,0,6.08-6.21c2.11-2.61,4.56-5,6-8.11.76-1.71,1.38-3.47,2-5.24a4,4,0,0,0,.06-1.78,31.77,31.77,0,0,0-.67-3.9,42.74,42.74,0,0,0-3.5-10.06,16.84,16.84,0,0,0-3.65-4.75,10.27,10.27,0,0,0,1.3-5.25,4.09,4.09,0,0,0-2.89-4.07,7.89,7.89,0,0,0-5.44-.06A29.38,29.38,0,0,0,68,30.22a1.94,1.94,0,0,0-1.66-1.43,35.18,35.18,0,0,1-3.57-1.26c-1.71-.64-3.54-.38-5.3-.62a41.21,41.21,0,0,0-6.38-.23c-2.1.06-4.21.17-6.3.43-1.82.24-3.61.73-5.42,1.09-.61.12-1.26.13-1.87.25s-.68.9-1.46.59-.28-.9-.62-1.2A15.53,15.53,0,0,0,33,26a16.11,16.11,0,0,0-2.64-1c-2.05-.73-5.51.93-6.51,2.78a9,9,0,0,0-.64,7.16c.32,1,.68,2,1,3.14a9.69,9.69,0,0,0-.9,1.13c-.45.75-1.19,1.4-.87,2.43.07.21-.42.53-.53.84-1.48,4-2.94,7.92-2.89,12.2a4.56,4.56,0,0,0,.54,2.6,3.28,3.28,0,0,1,.51,1.35c.26,2.32,1.44,4.31,2.47,6.35.49,1,.86,2,1.35,3a8.61,8.61,0,0,0,2.71,3.21,11.63,11.63,0,0,1,1.65,1.49,19.83,19.83,0,0,0,4.31,3.23,1.33,1.33,0,0,1,.47.31c1.83,2.35,4.8,2.77,7.38,3.83a6.45,6.45,0,0,1,.84.37c.92.57.91.58,2.06.16a53.83,53.83,0,0,1-.45,7.76c-.92.12-1.51.17-2.08.27a18.15,18.15,0,0,1-6.06.52,9.54,9.54,0,0,1-5.23-2.41,37.17,37.17,0,0,1-3.12-3.62c-.58-.72-1.1-1.47-1.61-2.23a5.45,5.45,0,0,0-4.37-2.24c-.68-.06-1.37,0-2.18,0,.14.31.16.55.28.61,2,1,2.86,2.79,3.73,4.6q1.07,2.2,2.28,4.34a12.7,12.7,0,0,0,7.07,5.77,18.41,18.41,0,0,0,6.74,1.19c.94,0,1.89-.1,2.92-.15.22,1.29.89,2.48.5,3.93-.34,1.3,0,2.73-.67,4.28l-.59-1c-1,.51-2.11.15-3.21,0a24,24,0,0,1-7.2-2.26c-1-.47-2.09-.9-3.12-1.37A6.78,6.78,0,0,1,25.83,98c-1.57-1.13-3.13-2.26-4.67-3.42-1.3-1-2.56-2-3.86-2.94a13.62,13.62,0,0,1-3.53-4.21c-1.18-2-2.67-3.77-3.88-5.73-.83-1.34-1.71-2.66-2.48-4s-1.48-2.9-2.2-4.37a18.8,18.8,0,0,1-2-8.81c0-.84-.1-1.67-.12-2.51a17.45,17.45,0,0,1,0-2.8c.31-2.48.74-4.95,1.07-7.43.14-1,.19-2,.23-3a2.54,2.54,0,0,1,.75-2,2.94,2.94,0,0,0,.78-1.19C6.5,43.62,7,41.7,7.58,39.8c.18-.6-.25-.81-.72-1.13a29.06,29.06,0,0,0,2.49-4.79,17,17,0,0,1,3-4.37c1.07-1.08,1.95-2.31,2.92-3.47.55-.65,1-1.52,1.71-1.86s1.14-.75,1.19-1.52c0-.15.17-.4.3-.42,1.18-.26,1.67-1.4,2.75-1.83a4.78,4.78,0,0,0,2.51-1.87.86.86,0,0,1,.57-.4c1.34-.05,2.07-1,3-1.65a5,5,0,0,1,2.46-1.25c.55,0,1-.73,1.61-.87a5.44,5.44,0,0,0,2.75-1.51l.14.92c.16,0,.43,0,.47,0,.24-.39.42-.8.73-1.42l3.29-.69c1.87-.39,3.74-.75,5.59-1.21a8.85,8.85,0,0,1,3.94-.27,13.52,13.52,0,0,0,3.81,0,22.1,22.1,0,0,1,5.33,0c1.39.18,2.81.09,4.2.22,3.23.3,6.48.51,9.67,1a21.74,21.74,0,0,1,8.23,2.76,4.93,4.93,0,0,0,1.55.7,11.53,11.53,0,0,1,4.82,2.81,66,66,0,0,1,6.05,6.48c.58.64,1.13,1.3,1.73,1.92,2.14,2.17,3.47,4.86,5.22,7.28.35.5.71,1,1.07,1.48a22.67,22.67,0,0,1,3.57,6.33c1,3,2,6.07,3.11,9.06a19.13,19.13,0,0,1,.82,5,3.21,3.21,0,0,0,.73,2.34ZM13.94,29.69c-1.22.91-1.25,1-1.51,2.49Zm3.52-4.24-.33-.2-.67,1,.25.15Zm82.89,51.2a2.55,2.55,0,0,0-.34-.2,1.57,1.57,0,0,0-.28.41c0,.06.1.17.16.25Z"/><path d="M108.18,57.51V50c.72,2.75.15,5.11,0,7.47Z"/></svg>