<svg xmlns="http://www.w3.org/2000/svg" width="448" height="512" style=""><rect id="backgroundrect" width="100%" height="100%" x="0" y="0" fill="none" stroke="none"/><!--! Font Awesome Pro 6.1.1 by @fontawesome - https://fontawesome.com License - https://fontawesome.com/license (Commercial License) Copyright 2022 Fonticons, Inc. --><g class="currentLayer" style=""><title>Layer 1</title><path d="M415.3589743375778,32.64102566242218 H31.25897433757782 C13.65897433757782,32.64102566242218 -0.6410256624221802,47.14102566242218 -0.6410256624221802,64.94102566242218 v383.4 C-0.6410256624221802,466.1410256624222 13.65897433757782,480.6410256624222 31.25897433757782,480.6410256624222 H415.3589743375778 c17.6,0 32,-14.5 32,-32.3 V64.94102566242218 c0,-17.8 -14.4,-32.3 -32,-32.3 zM134.75897433757783,416.6410256624222 H68.35897433757782 V202.84102566242217 h66.5 V416.6410256624222 zm-33.2,-243 c-21.3,0 -38.5,-17.3 -38.5,-38.5 S80.25897433757783,96.64102566242218 101.55897433757782,96.64102566242218 c21.2,0 38.5,17.3 38.5,38.5 c0,21.3 -17.2,38.5 -38.5,38.5 zm282.1,243 h-66.4 V312.6410256624222 c0,-24.8 -0.5,-56.7 -34.5,-56.7 c-34.6,0 -39.9,27 -39.9,54.9 V416.6410256624222 h-66.4 V202.84102566242217 h63.7 v29.2 h0.9 c8.9,-16.8 30.6,-34.5 62.9,-34.5 c67.2,0 79.7,44.3 79.7,101.9 V416.6410256624222 z" id="svg_1" class="selected" fill="#36d7b7" fill-opacity="1" stroke="#dadada" stroke-opacity="1"/></g></svg>