<svg id="Calque_1" data-name="Calque 1" xmlns="http://www.w3.org/2000/svg" viewBox="0 0 113.39 113.39"><title>linkedin</title><path d="M97.76,38.07a23.82,23.82,0,0,1,4.34,5,26.6,26.6,0,0,1,2.08,4.42c.42,1,.63,2.06,1,3.06.55,1.44.81,3,2,4.2a1.29,1.29,0,0,1,.13,1.15,4.47,4.47,0,0,0-.32-.41,3.67,3.67,0,0,0-.48-.31,3,3,0,0,0-.09.84,68.65,68.65,0,0,1,.9,11.09c.05,1.49-.09,3-.11,4.49,0,2.58,0,5.15,0,7.73,0,1.85-.27,3.71-.32,5.56,0,2.58,0,5.15,0,7.73,0,1.55,0,3.1,0,4.65,0,.6.1,1.19.13,1.79s-.9.86-.09,1.37c-.27.2-.52.52-.83.58s-.76-.27-1.06-.18c-3.85,1.18-7.83.76-11.77.86-1.53,0-3.06,0-4.59,0-.59,0-1.15,0-1.47-.7l1.36-.5a1.65,1.65,0,0,0,0-.56,9.37,9.37,0,0,1-.31-5.32A5.79,5.79,0,0,0,88.39,93c0-1.41-.11-2.82-.18-4.57-.5,1.52-.06,2.83-.82,4.37.1-2.73.19-5,.28-7.34,0-1.07.11-2.13.18-3.19.16-2.57.42-5.13.49-7.69.06-2.38.17-4.76.06-7.15a68.67,68.67,0,0,0-1.76-11.06A17.21,17.21,0,0,0,84,50C82.87,48.5,81.7,47,79.53,46.61a.55.55,0,0,1-.18-.06c-1.61-1.11-3.29-.75-4.9-.1a35.46,35.46,0,0,0-10.24,5.89,7.09,7.09,0,0,0-2.4,3.8c-.11.45-.29.88.14,1.35.19.21.11.67.1,1,0,1-.14,2-.11,3a1.15,1.15,0,0,1-.29,1,.52.52,0,0,0-.11.5c.77,1.28.15,2.65.29,4,.19,1.73.32,3.46.35,5.19,0,1.19-.19,2.39-.24,3.58-.09,2.34-.21,4.67-.19,7,0,2.8.11,5.59-.1,8.4a13.35,13.35,0,0,0,.22,4.58.52.52,0,0,1,0,.35c-.77,1.58-.58,3.26-.59,4.92,0,0-.07.1-.13.19-5.74-.4-11.5-.14-17.27,0-.93,0-1.87,0-2.92-.08a4.23,4.23,0,0,1-.51-2.43c.28-3.63.46-7.26.64-10.89A10.21,10.21,0,0,0,41,85a9.3,9.3,0,0,1,.11-3.37c.08-.65,0-1.31.08-2,.09-1.49.2-3,.29-4.46a1.87,1.87,0,0,0,0-.71c-.49-1.47-.15-3-.16-4.45a38.47,38.47,0,0,1,.18-4.29,43.2,43.2,0,0,0,.07-7.88c-.28-3.58-.47-7.16-.69-10.75a.89.89,0,0,1,.15-.54c.08.61.16,1.22.28,2.09.31-.34.56-.48.57-.63a13.27,13.27,0,0,0-.54-5.17c-.12.68-.23,1.37-.35,2.06-.64-3.9.14-7.74.27-11.59L40.16,33l1.74-2.56c1-.27,2.41.39,3.18-1.26l.43,1.06c4.61.71,9.32.53,14.08.58.23.42.32.9.63,1.1.56.35.46.79.46,1.26,0,1.25,0,2.5,0,3.81a2.41,2.41,0,0,0,2-.84A11.94,11.94,0,0,1,66.41,34c2.67-1.12,5.2-2.58,8.2-2.88a8.11,8.11,0,0,0,1.64-.49,19.86,19.86,0,0,1,7.94-.85,12.33,12.33,0,0,1,7,3c.75.65,1.56,1.23,2.29,1.9a3.49,3.49,0,0,1,.52.93V35.5a3.71,3.71,0,0,0,3,3A.5.5,0,0,0,97.76,38.07Z"/><path d="M30.16,30.63c.72,1.2-.12,2.59.83,3.82v-2l.27,0a2.37,2.37,0,0,1,.29.71c0,.72,0,1.44,0,2.16.17,5.21,0,10.42-.18,15.63,0,1.61-.1,3.23-.1,4.84,0,3.3,0,6.59,0,9.88a33.24,33.24,0,0,1-.2,4.12,62.41,62.41,0,0,0-.14,10.41c.06,2,0,3.95,0,5.93q-.06,5-.14,10.07c0,.95,0,1.91,0,3.12L30,98.52a2.06,2.06,0,0,1-1.43,2.16l.6-.48-1.72-1.26a5.92,5.92,0,0,0-1.73.21c-2.23.85-4.51.36-6.77.35-1.4,0-2.8-.16-4.19-.12a15.1,15.1,0,0,1-3.8,0c-.32-.07-.74.26-1.39.52-.8-.14-1-.9-.92-1.81.14-2.33.17-4.67.41-7a81.74,81.74,0,0,0,0-11.5A26.68,26.68,0,0,1,9.19,73a15,15,0,0,0,.09-2.33c.13-2.76.29-5.51.39-8.26a15.26,15.26,0,0,0-.11-2.87c-.28-1.9-.7-3.77-1-5.66a13,13,0,0,1-.12-2.33c.07-2.64.25-5.27.26-7.91,0-3.65-.06-7.3-.1-11,0-1.32.39-1.86,1.74-2.15a13.8,13.8,0,0,1,5.83-.39,16.82,16.82,0,0,0,2.47.12c2.73.13,5.46.29,8.2.41C27.91,30.67,29,30.63,30.16,30.63Zm.58,34.59a2.21,2.21,0,0,0,0,2.92ZM30.3,55c0-.47.07-.94.11-1.4s.55-.92-.08-1.41C29.73,53.15,30.23,54.1,30.3,55Zm-.2,29.11h.16V81.54H30.1Zm-.69-15.45h.1V66.41h-.1Zm.39-11.23.31.07.25-1-.3-.06Zm.87-7.62c-.61.4-.33.75,0,1.31Z"/><path d="M6.74,19.08a1.58,1.58,0,0,1-1.12-1.52,9.65,9.65,0,0,1,0-2.15A15.85,15.85,0,0,1,7.88,9,5.68,5.68,0,0,1,8.8,7.84a22.4,22.4,0,0,1,5.29-3.16A2.13,2.13,0,0,1,15,4.54,54.43,54.43,0,0,1,21.31,5a8.26,8.26,0,0,1,5.34,2.88,2.45,2.45,0,0,0,.81.76c1.51.78,1.87,2.23,2.33,3.58A6.12,6.12,0,0,1,30,16.76a16,16,0,0,0-.63,2.07c-.47,1.81-1.78,3.15-2.92,4.58a1.29,1.29,0,0,1-1,.47c-.8-.15-1.31.29-1.93.59a9.62,9.62,0,0,1-2.12.77,27.75,27.75,0,0,1-4.34.58,9.77,9.77,0,0,1-3.16-.55A8.38,8.38,0,0,1,9.13,21.9a4.14,4.14,0,0,0-2.64-2l.21-.87c.39-.83,0-1.59-.18-2.51C6,17.56,6.49,18.31,6.74,19.08Zm.56-2.24L7.47,15A1.71,1.71,0,0,0,7.3,16.84Zm3.55,5.75c.11.38.1.56.19.65a2,2,0,0,0,.51.24l.13-.21Z"/><path d="M96.4,37A2.61,2.61,0,0,1,94,35.5v.08a.87.87,0,0,1,1.15.15C95.61,36.13,96,36.57,96.4,37Z"/><path d="M25.78,100.42H27v.09H25.78Z"/><path d="M97.74,38.07c-.77,0-1.4-.22-1.39-1.12Z"/></svg>