<svg id="Calque_1" data-name="Calque 1" xmlns="http://www.w3.org/2000/svg" viewBox="0 0 113.39 113.39"><title>Plan de travail 1</title><path d="M64.8,18.82a4.25,4.25,0,0,1,2.63-1.48,18.58,18.58,0,0,1,8.06-.24c1.1.16,2.21.26,3.32.4,2.92.37,5.87.61,8.76,1.15a28.08,28.08,0,0,0,9.72,0c2-.32,4.07-.67,6.11-1a1.81,1.81,0,0,1,1.81.6l-.33,1.5c.21-.05.43,0,.48-.13.35-.61.67-1.24,1-2l1.89-.3c-.6,1.62-2.15,2.19-2.89,3.48a19.06,19.06,0,0,1-2.85,3.2,11.06,11.06,0,0,0-2.79,3.84A18.46,18.46,0,0,0,105,26.19a4.84,4.84,0,0,1,4.57-.15,5.38,5.38,0,0,1,.9.93A5.17,5.17,0,0,0,106,29.54a2.94,2.94,0,0,1-.61.74,34.58,34.58,0,0,0-5.63,6.15,7.92,7.92,0,0,0-1.4,2.46c-.86,2.64-1.62,5.3-2.33,8a18.71,18.71,0,0,0-.29,2.82,11.18,11.18,0,0,1-.24,1.64c-.8,3-1.63,6-2.56,9-.1-2.38,1.46-4.51,1-7.33a17,17,0,0,0-1.53,3.92A22.42,22.42,0,0,1,91,61c0,.15-.19.32-.15.43.64,2-.64,3.54-1,5.31-.06.3-.1.61-.2,1.22l1.11-.57,0,0c-.25.84-.47,1.69-.76,2.51-.42,1.2-.88,2.38-1.34,3.57a6.67,6.67,0,0,1-.48,1.09c-1.88,3.07-3.59,6.25-5.7,9.14A33.06,33.06,0,0,1,76,90.3c-5.36,4.12-11.5,6.83-17.47,9.84a6.37,6.37,0,0,1-1.7.83c-.69.12-1.33.91-2.17.19-.17-.16-1.05.13-1.26.45-1.2,1.84-3.24,1.92-5,2.32a72.07,72.07,0,0,1-7.35,1c-1.43.17-2.86.39-4.29.45-2,.09-4,.11-6,.08-4.12-.07-7.95-1.58-11.91-2.43-.78-.17-1.54-.4-2.31-.61-.46-.14-1.09-.16-1.33-.47a6.88,6.88,0,0,0-3.45-2c-.28-.11-.69-.27-.77-.5-.55-1.63-2-2.24-3.32-2.94-2.12-1.18-3.29-3.12-4.91-5.16a21.79,21.79,0,0,1,6,1,31.8,31.8,0,0,0,8.05,1c1.19,0,2.38.17,3.57.25a21,21,0,0,0,7.33-.69,7.27,7.27,0,0,0-1-1.36A32.25,32.25,0,0,0,24,89.55,55.49,55.49,0,0,1,8.28,74.31a47.26,47.26,0,0,1-2.58-4,7.22,7.22,0,0,1-.77-2.49c-.07-.46.27-1,.47-1.6C7,67,8.38,67.54,9.31,69a5.75,5.75,0,0,0,3.38,2.49,8.3,8.3,0,0,0-1.59-3.08c-.7-1.07-1.55-2-2.22-3.12a24.35,24.35,0,0,1-3.1-8.25c-.43-2.24-1.25-4.48-.79-6.85,0-.22.11-.44.22-.9,2.57,1.06,4.59,3.12,7.7,3.73-.73-1.75-1.3-3.22-1.95-4.64a4.1,4.1,0,0,1-.51-2.74A3,3,0,0,0,10,43.43c-1.69-2-2.07-4.46-2.23-6.94-.12-1.83-.06-3.67-.09-5.51a29.07,29.07,0,0,1-.09-3.09,8.08,8.08,0,0,1,.67-3.21,12.3,12.3,0,0,0,1.08-2.61c.08-.24.42-.39.75-.68.47.69.89,1.24,1.25,1.83a22.78,22.78,0,0,0,7.93,7.83c3.08,1.83,6.1,3.78,9.17,5.65a26.61,26.61,0,0,0,9.7,3.23c1.57.26,3.11.67,4.66,1,.23,0,.46.22.68.21,3.55-.18,7.21.19,10.43-1.89.08-.12.24-.25.24-.39.11-4.07,1.91-7.72,2.9-11.56,0-.08,0-.16.07-.23a20.49,20.49,0,0,1,6.23-7.71,9.79,9.79,0,0,1,1.53-.62v1l2-1.1-.14-.31ZM45.47,102.41a6.4,6.4,0,0,0,4.23-1,3.7,3.7,0,0,0-4.17.9s0,.15,0,.23H44.25l-.1.34.82.53Zm-11.45,2c-2.32-.81-3.17-.83-5-.22A8.6,8.6,0,0,0,34,104.39ZM77.17,18.54c-1-.93-1.89-.77-3.12-.44A3,3,0,0,0,77.17,18.54Zm-8.35-.18c1.27.49,2.07.65,2.82-.4A2.82,2.82,0,0,0,68.82,18.36ZM20.89,85.69c-.63-1.11-.65-1.09-2-1.73Z"/><path d="M90.8,67.37c0-1.92.92-3.55,1.69-5.23a12.49,12.49,0,0,1-1.74,5.19Z"/></svg>